<?xml version="1.0" encoding="UTF-8"?>
<svg version="1.1" xmlns="http://www.w3.org/2000/svg" width="1024" height="1024">
<path d="M0 0 C337.92 0 675.84 0 1024 0 C1024 337.92 1024 675.84 1024 1024 C686.08 1024 348.16 1024 0 1024 C0 686.08 0 348.16 0 0 Z " fill="#031021" transform="translate(0,0)"/>
<path d="M0 0 C5.51894681 5.02689613 7.66396269 10.18698851 8.18412447 17.63718688 C8.25731126 20.74275482 8.2665342 23.8425426 8.25396729 26.94895935 C8.25864726 28.73215792 8.25864726 28.73215792 8.26342177 30.55138069 C8.26999777 33.83383928 8.26765945 37.1161488 8.26144934 40.39860356 C8.25691238 43.94537005 8.2639148 47.49211685 8.26940918 51.03887939 C8.27829184 57.98045364 8.27638612 64.92198457 8.2705839 71.86356049 C8.26606261 77.50688901 8.26545653 83.15020542 8.26763153 88.79353523 C8.267938 89.59748293 8.26824446 90.40143062 8.26856022 91.22974037 C8.26919968 92.86308352 8.26984811 94.49642667 8.2705054 96.12976981 C8.27620548 111.4378757 8.26965603 126.74595762 8.25890467 142.05405957 C8.24997115 155.18001331 8.25152017 168.30593167 8.26074219 181.43188477 C8.27145344 196.68458786 8.2756544 211.93726995 8.26951766 227.18997627 C8.26888058 228.81753385 8.26825184 230.44509142 8.26763153 232.072649 C8.2671687 233.27374367 8.2671687 233.27374367 8.26669653 234.49910287 C8.26497203 240.13305307 8.26787945 245.76698991 8.27259064 251.40093803 C8.27820904 258.27064313 8.27666294 265.14030254 8.26602915 272.01000243 C8.26078508 275.51288447 8.25869403 279.01569043 8.26532745 282.51857185 C8.27079624 286.32047601 8.2639322 290.12216645 8.25396729 293.92405701 C8.26065945 295.57494714 8.26065945 295.57494714 8.26748681 297.25918859 C8.22353582 305.91080576 7.86630663 314.1824004 2 321 C-4.06737087 325.6473479 -10.5858331 326.10655999 -18 327 C-84.25087677 335.2917939 -153.97725569 354.43867605 -201.609375 403.671875 C-203 405 -203 405 -204 405 C-204.38473835 389.33520477 -204.64127192 373.67375606 -204.74871635 358.00489616 C-204.80154951 350.72760925 -204.89497785 343.45523318 -205.08691406 336.18017578 C-205.25427758 329.83248429 -205.34248743 323.48923687 -205.33897984 317.13925946 C-205.33980434 313.77758581 -205.38962067 310.43487157 -205.51125717 307.07412338 C-206.21243219 286.69328555 -206.21243219 286.69328555 -200.8392067 280.51576805 C-195.58123126 276.12983938 -189.79556839 273.04473712 -183.58975601 270.21146679 C-180.19019751 268.62118098 -177.15019407 266.70722525 -174.0078125 264.66015625 C-172.04780511 263.45941793 -170.08688413 262.26016947 -168.125 261.0625 C-156.56710145 253.97584811 -145.04919346 246.82847597 -133.57324219 239.60986328 C-131.25796416 238.16138669 -128.93274136 236.73127457 -126.6015625 235.30859375 C-118.53015352 230.34266828 -111.5023361 225.65804148 -108.47265625 216.296875 C-106.7721881 208.033443 -107.32136573 200.14304857 -112 193 C-116.73777439 186.00308096 -123.45610903 182.30512899 -130.625 178.125 C-131.87228785 177.38495145 -133.11877406 176.64355033 -134.36450195 175.90087891 C-136.95074612 174.36037722 -139.54032333 172.82571576 -142.13232422 171.29492188 C-147.60219667 168.0578006 -153.0251209 164.74395832 -158.45095825 161.43377686 C-166.04362461 156.80449603 -173.65168976 152.20103072 -181.28125 147.6328125 C-181.86707352 147.28197601 -182.45289703 146.93113953 -183.05647278 146.56967163 C-185.85217783 144.89602132 -188.64925152 143.22471242 -191.44799805 141.55615234 C-192.42808838 140.97043457 -193.40817871 140.3847168 -194.41796875 139.78125 C-195.71383911 139.0087793 -195.71383911 139.0087793 -197.03588867 138.22070312 C-199 137 -199 137 -200 136 C-200.14107083 134.15192453 -200.21241557 132.2984878 -200.25634766 130.44555664 C-200.2998082 128.66218651 -200.2998082 128.66218651 -200.34414673 126.8427887 C-200.42869233 122.0872553 -200.50157616 117.33181583 -200.54844093 112.57575321 C-200.58407373 108.96988189 -200.63702014 105.36626583 -200.73388672 101.76147461 C-200.82737587 98.27169313 -200.87546682 94.78389922 -200.89283371 91.29293633 C-200.91358146 89.33065223 -200.97892696 87.36900048 -201.0453186 85.4077301 C-201.03093857 78.53757139 -200.35698311 74.59233157 -195.70849609 69.37280273 C-194.16656644 67.88606821 -192.59754266 66.42680903 -191 65 C-189.58303209 63.58363464 -188.16632443 62.16700882 -186.75 60.75 C-157.62662591 35.30065157 -119.76322941 20.26799082 -83 10 C-82.04158203 9.72849121 -81.08316406 9.45698242 -80.09570312 9.17724609 C-13.19249187 -9.51086623 -13.19249187 -9.51086623 0 0 Z " fill="#1453AE" transform="translate(721,209)"/>
<path d="M0 0 C0.83487946 0.13416321 1.66975891 0.26832642 2.52993774 0.40655518 C15.2798762 2.46375822 27.86495401 4.76505614 40.3125 8.25 C41.34842285 8.53601074 42.3843457 8.82202148 43.45166016 9.11669922 C80.42742857 19.4194953 137.66327605 36.67255451 158.91845703 71.91259766 C160.51945458 75.74545868 160.71284357 78.99361562 160.640625 83.0703125 C160.63875183 83.8102243 160.63687866 84.55013611 160.63494873 85.31246948 C160.62825328 86.87404912 160.61438884 88.43561271 160.59375 89.99707031 C160.56286573 92.34717021 160.55279511 94.69659297 160.546875 97.046875 C160.50265117 105.49027541 160.19635187 113.84518535 159.3125 122.25 C155.35648219 120.79959641 151.92321077 118.92030228 148.33203125 116.72265625 C147.76588104 116.37755005 147.19973083 116.03244385 146.61642456 115.67687988 C145.40823528 114.93969363 144.20110756 114.20076518 142.9949646 113.4602356 C141.11014637 112.30338323 139.22212089 111.15193373 137.33325195 110.00170898 C131.77430786 106.61321275 126.22792282 103.20652276 120.7109375 99.75 C119.49700317 98.99384399 119.49700317 98.99384399 118.25854492 98.22241211 C116.80347011 97.31407171 115.35272909 96.39873296 113.9074707 95.47485352 C107.14694101 91.25974206 100.28767232 89.20626939 92.3125 90.25 C84.39977558 92.34766855 79.64481488 97.17308353 75.2414999 103.88171196 C73.91335017 107.26754776 74.02677462 110.55871229 74.03834534 114.14260864 C74.03310866 114.9434305 74.02787198 115.74425236 74.02247661 116.56934154 C74.00746039 119.25607623 74.0067711 121.94262074 74.00610352 124.62939453 C73.99848292 126.55462465 73.9900556 128.47985173 73.98088074 130.40507507 C73.95891426 135.63881966 73.95013351 140.87250581 73.94505429 146.10629129 C73.94141213 149.37752762 73.93517269 152.64874861 73.9280529 155.9199791 C73.90354735 167.33663353 73.89050489 178.75324249 73.88696289 190.16992188 C73.88333059 200.80358917 73.85345983 211.4369673 73.81155831 222.07054627 C73.77683099 231.20447563 73.761414 240.33830931 73.76071686 249.47230422 C73.75992464 254.9254449 73.75121172 260.37829133 73.72271919 265.83136368 C73.69649816 270.96474681 73.69435606 276.09759268 73.71037483 281.23101234 C73.71218632 283.1102942 73.70552585 284.98960722 73.68955612 286.8688221 C73.35899769 300.87718969 73.35899769 300.87718969 79.3125 313.25 C81.83109104 315.57418579 84.3595639 317.5122881 87.3125 319.25 C87.89902344 319.62253906 88.48554688 319.99507812 89.08984375 320.37890625 C96.07828823 323.11778695 106.18044823 322.14467418 113.0625 319.5 C127.0824596 312.75526268 140.1735237 303.82038442 153.12890625 295.26367188 C153.92554688 294.73837891 154.7221875 294.21308594 155.54296875 293.671875 C156.60100708 292.96949707 156.60100708 292.96949707 157.68041992 292.25292969 C159.3125 291.25 159.3125 291.25 160.3125 291.25 C160.33566233 304.33240731 160.35343498 317.41480975 160.36431217 330.49723339 C160.36953246 336.57181205 160.37661467 342.64637668 160.38793945 348.72094727 C160.39879859 354.58237661 160.40478328 360.44379247 160.40737724 366.30523109 C160.40922602 368.54234339 160.41283616 370.77945495 160.41823006 373.01656151 C160.42548058 376.14802018 160.42648924 379.27942297 160.42602539 382.41088867 C160.42962067 383.33733688 160.43321594 384.2637851 160.43692017 385.2183075 C160.43027533 389.35942478 160.3681681 393.21272229 159.3125 397.25 C155.23189682 396.65450528 152.68954906 394.49954899 149.4375 392.0625 C117.08390732 368.45335602 82.27996256 353.38007297 44.3125 341.25 C43.46026855 340.97172363 42.60803711 340.69344727 41.72998047 340.40673828 C28.70771187 336.16496532 15.58120335 333.28047473 2.12255859 330.77734375 C-0.32244136 330.31850796 -2.7613525 329.8387935 -5.19921875 329.34375 C-11.38691388 328.10455972 -17.50739786 327.13949418 -23.79272461 326.58959961 C-32.64292485 325.79651917 -38.65276442 324.81269253 -44.74999237 317.91762447 C-47.8948909 313.09207322 -47.23788635 307.51734313 -47.19543457 301.95863342 C-47.20167453 300.70887881 -47.2079145 299.4591242 -47.21434355 298.17149824 C-47.23102678 294.70954037 -47.22279542 291.24802411 -47.21039867 287.78606474 C-47.20134616 284.0497748 -47.21531895 280.31356064 -47.22631836 276.57728577 C-47.24410659 269.26041237 -47.24026213 261.94370309 -47.2286678 254.62682325 C-47.21963424 248.67973917 -47.21840914 242.73270108 -47.22276306 236.78561211 C-47.22337599 235.93918557 -47.22398893 235.09275903 -47.22462043 234.2206832 C-47.22589934 232.50117051 -47.22719619 230.78165783 -47.2285108 229.06214517 C-47.23991766 212.93716501 -47.22680159 196.81227581 -47.20530933 180.68731057 C-47.18744148 166.85342515 -47.19053965 153.01967401 -47.20898438 139.18579102 C-47.23039479 123.12006543 -47.23881561 107.05441959 -47.22653532 90.98868173 C-47.22526113 89.27518905 -47.22400365 87.56169636 -47.22276306 85.84820366 C-47.22214596 85.00514083 -47.22152886 84.162078 -47.22089306 83.29346781 C-47.21744043 77.35451613 -47.22326669 71.41561506 -47.23268127 65.47667122 C-47.24390469 58.23754115 -47.24085421 50.99858456 -47.2195583 43.75947434 C-47.20905189 40.06640742 -47.20491876 36.37362961 -47.21815491 32.68056488 C-47.23228943 28.67624205 -47.2154029 24.67264805 -47.19543457 20.66835022 C-47.20435746 19.50220265 -47.21328034 18.33605508 -47.22247362 17.1345697 C-47.14959423 9.61566517 -46.12799471 5.20145927 -41.109375 -0.5625 C-30.86369608 -7.83980465 -11.68860136 -1.90171863 0 0 Z " fill="#239AF5" transform="translate(342.6875,210.75)"/>
<path d="M0 0 C3.2878418 1.47436523 3.2878418 1.47436523 6.69921875 3.55859375 C7.32302933 3.93383682 7.9468399 4.3090799 8.58955383 4.69569397 C10.63129958 5.92863237 12.65906403 7.18280712 14.6875 8.4375 C16.12348836 9.31001171 17.56035103 10.18108595 18.99804688 11.05078125 C22.65203515 13.26561139 26.29533895 15.49737688 29.93597412 17.73406982 C33.0202339 19.62574064 36.11308152 21.50313957 39.20703125 23.37890625 C42.6118815 25.44390402 46.01650785 27.50920842 49.41674805 29.58178711 C58.23810833 34.95546256 67.11122386 40.23874101 76 45.5 C86.42960588 51.67420452 96.83063034 57.89195315 107.1875 64.1875 C108.29029297 64.8578125 109.39308594 65.528125 110.52929688 66.21875 C112.63282443 67.49960448 114.734293 68.7838477 116.83349609 70.07177734 C119.06207953 71.42885922 121.29619083 72.76667271 123.54541016 74.08837891 C124.13163651 74.43749832 124.71786285 74.78661774 125.32185364 75.14631653 C126.94973294 76.11561351 128.58273858 77.07628621 130.21606445 78.03637695 C133.92007986 80.64896977 136.63377762 83.15003841 137.53125 87.68359375 C137.5209375 88.59238281 137.510625 89.50117188 137.5 90.4375 C137.51546875 91.79681641 137.51546875 91.79681641 137.53125 93.18359375 C136.67011101 97.74889679 134.74299819 100.687728 131.00927734 103.4987793 C128.52262596 105.11225738 125.99604366 106.62817591 123.4375 108.125 C121.53200459 109.27122574 119.62706785 110.41838069 117.72265625 111.56640625 C116.76246582 112.1402002 115.80227539 112.71399414 114.81298828 113.30517578 C110.62645321 115.82756134 106.49955837 118.44041606 102.375 121.0625 C100.80347379 122.05743126 99.23185931 123.05222313 97.66015625 124.046875 C96.10676494 125.03124069 94.55337947 126.01561562 93 127 C81.66140046 134.17957894 70.29867289 141.31907508 58.91455078 148.42626953 C52.66238172 152.33124886 46.41870463 156.24915441 40.1875 160.1875 C39.43033691 160.66582275 38.67317383 161.14414551 37.89306641 161.63696289 C33.89720842 164.16293737 29.90574704 166.69566389 25.91796875 169.234375 C24.65206909 170.03838745 24.65206909 170.03838745 23.3605957 170.85864258 C21.76532177 171.87196509 20.17129609 172.88725696 18.57885742 173.9050293 C1.61707146 184.66927562 1.61707146 184.66927562 -7 183 C-9.93423195 181.20353146 -11.47205355 180.0558929 -13 177 C-13.10316394 174.76895015 -13.13955174 172.53473604 -13.14717102 170.30131531 C-13.15084771 169.60484683 -13.1545244 168.90837836 -13.1583125 168.19080478 C-13.16936894 165.84553892 -13.17319647 163.50031734 -13.17700195 161.1550293 C-13.18326509 159.4781378 -13.18991176 157.8012477 -13.19691467 156.12435913 C-13.21433751 151.56024265 -13.22487979 146.99613666 -13.2331202 142.43199515 C-13.23826732 139.58193323 -13.24434316 136.73187457 -13.25063133 133.88181496 C-13.26968643 124.96882096 -13.28391726 116.05583528 -13.2922433 107.14282483 C-13.30201989 96.84637563 -13.32834904 86.55014118 -13.36874419 76.25376767 C-13.39887886 68.30042227 -13.41370963 60.34713853 -13.41702431 52.39373714 C-13.41937771 47.6410688 -13.42837565 42.88862979 -13.45348549 38.13602257 C-13.47672516 33.66510244 -13.48101609 29.1945633 -13.47072411 24.72359848 C-13.47022764 23.08248822 -13.47658062 21.44135947 -13.49028015 19.80030632 C-13.50793904 17.55962412 -13.50092404 15.32031814 -13.48774719 13.07963562 C-13.49013555 11.82582942 -13.4925239 10.57202322 -13.49498463 9.28022289 C-12.91002193 5.40372264 -11.72783943 3.76105901 -9 1 C-5.90123573 -0.54938213 -3.43067962 -0.2576487 0 0 Z " fill="#00A4C0" transform="translate(449,326)"/>
<path d="M0 0 C0.68243774 0.09454468 1.36487549 0.18908936 2.06799316 0.28649902 C3.72682152 0.5168313 5.3849721 0.75203647 7.04296875 0.98828125 C7.04318612 1.54847114 7.04340349 2.10866102 7.04362744 2.68582636 C7.05714348 35.88772819 7.09662546 69.08948563 7.16982437 102.29130784 C7.17859112 106.27794506 7.18714092 110.26458272 7.19555664 114.2512207 C7.1972357 115.04488806 7.19891477 115.83855542 7.20064471 116.6562733 C7.22731407 129.50700552 7.23640974 142.35769315 7.23901018 155.20845021 C7.2420697 168.39466111 7.26401621 181.58074305 7.30349332 194.76689571 C7.3272575 202.90342406 7.33629198 211.03969497 7.32648186 219.17625325 C7.32053737 225.41555439 7.34087145 231.65451829 7.3710289 237.89374352 C7.37928094 240.45314353 7.3789902 243.01258737 7.36956596 245.57198334 C7.35797759 249.06454947 7.37701407 252.55565828 7.4037323 256.04811096 C7.39305904 257.06271332 7.38238578 258.07731568 7.37138909 259.12266356 C7.46562807 265.71810132 8.61960634 269.04097043 13.04296875 273.98828125 C18.32003029 277.77469247 24.38862186 277.74980531 30.66796875 278.30078125 C45.06331607 279.75873221 58.96769286 282.70804581 73.04296875 285.98828125 C74.53493989 286.32128337 76.0270954 286.65346184 77.51953125 286.984375 C88.61081618 289.56774882 99.33077843 293.27458656 110.09033203 296.97558594 C112.81924356 297.91154799 115.55305571 298.83112874 118.2890625 299.74609375 C147.44530252 309.58857336 173.34699628 323.37130556 198.73046875 340.609375 C199.29419693 340.99131012 199.85792511 341.37324524 200.43873596 341.76675415 C202.96138137 343.49339527 205.38142246 345.26474006 207.75 347.19946289 C209.99869392 349.15919044 209.99869392 349.15919044 213.04296875 349.98828125 C213.04296875 348.33828125 213.04296875 346.68828125 213.04296875 344.98828125 C213.37296875 344.98828125 213.70296875 344.98828125 214.04296875 344.98828125 C214.04296875 348.28828125 214.04296875 351.58828125 214.04296875 354.98828125 C210.22210785 353.65870224 207.64727413 352.00970465 204.60546875 349.36328125 C191.55144905 338.78666675 176.7613897 333.42744143 161.04296875 327.98828125 C160.10855957 327.6644043 159.17415039 327.34052734 158.21142578 327.00683594 C133.06713631 318.40780409 107.18669954 313.39487587 81.04296875 308.98828125 C80.05296875 308.8166748 79.06296875 308.64506836 78.04296875 308.46826172 C55.62244197 304.64770504 32.43695331 303.83280032 9.72265625 304.0078125 C8.78998428 304.014142 7.85731232 304.0204715 6.89637756 304.0269928 C2.36537086 304.06351943 -2.16277343 304.12912753 -6.69262695 304.23754883 C-8.34195448 304.26158707 -9.99128699 304.28528601 -11.640625 304.30859375 C-12.75070419 304.34911613 -12.75070419 304.34911613 -13.88320923 304.39045715 C-19.52511828 304.44421942 -22.49914091 303.2382858 -26.95703125 299.98828125 C-30.19437075 295.84662598 -31.48002701 292.99467352 -31.69696045 287.75808716 C-31.72549882 287.12393265 -31.75403718 286.48977814 -31.78344035 285.83640683 C-32.20882405 274.79167358 -32.11362772 263.72200391 -32.11816406 252.67138672 C-32.12279979 250.02707267 -32.12780579 247.38276146 -32.13320923 244.7384491 C-32.14668492 237.59666908 -32.15279772 230.45489475 -32.15721989 223.31310415 C-32.15999559 218.84968671 -32.16423476 214.38627138 -32.16872406 209.92285538 C-32.180893 197.54711735 -32.19120319 185.171381 -32.19459915 172.79563713 C-32.19481872 172.00663433 -32.19503828 171.21763152 -32.1952645 170.40471954 C-32.19548278 169.61395733 -32.19570106 168.82319512 -32.19592595 168.00847042 C-32.1963694 166.40636309 -32.19681597 164.80425576 -32.19726562 163.20214844 C-32.19748705 162.40746714 -32.19770848 161.61278584 -32.19793662 160.79402329 C-32.20189542 147.88144223 -32.21939283 134.96891721 -32.24262515 122.05635785 C-32.2663238 108.77708087 -32.27879999 95.4978321 -32.27996707 82.21853364 C-32.28088363 74.77104313 -32.28663303 67.32362611 -32.30478668 59.87615585 C-32.32177118 52.88453051 -32.32345186 45.89304714 -32.31464767 38.90140724 C-32.31387449 36.33307458 -32.31825673 33.76473456 -32.32810593 31.19642067 C-32.3407397 27.69774404 -32.33499543 24.19956973 -32.32452393 20.70089722 C-32.33258033 19.67902813 -32.34063673 18.65715904 -32.34893727 17.60432422 C-32.30686999 11.61812801 -31.79406719 7.84697395 -27.421875 3.44140625 C-19.14468471 -3.07873341 -10.01941927 -1.43698673 0 0 Z " fill="#093D7C" transform="translate(288.95703125,258.01171875)"/>
<path d="M0 0 C7.92 0 15.84 0 24 0 C24 42.57 24 85.14 24 129 C16.41 129 8.82 129 1 129 C0.67 125.7 0.34 122.4 0 119 C-0.53367187 119.53109375 -1.06734375 120.0621875 -1.6171875 120.609375 C-10.27939401 128.82198601 -17.7950872 131.6445144 -29.59936523 131.54345703 C-42.09146665 131.00869479 -51.70682195 124.62415389 -60.1875 115.875 C-71.23396072 103.06719417 -71.01655038 86.9711975 -70 71 C-69.22889475 66.60249689 -68.02918244 62.96413041 -66 59 C-65.55269531 58.11441406 -65.10539062 57.22882812 -64.64453125 56.31640625 C-58.0135469 44.35219052 -47.92329859 37.44689916 -34.875 33.5625 C-25.35598001 32.18070678 -16.62119643 32.27916916 -8 37 C-5.69 38.98 -3.38 40.96 -1 43 C-0.67 28.81 -0.34 14.62 0 0 Z " fill="#FAF8F5" transform="translate(394,658)"/>
<path d="M0 0 C0.89218231 -0.00960754 1.78436462 -0.01921509 2.70358276 -0.02911377 C3.65878815 -0.03336365 4.61399353 -0.03761353 5.59814453 -0.04199219 C7.09899094 -0.0505423 7.09899094 -0.0505423 8.63015747 -0.05926514 C10.75000965 -0.06870163 12.86987642 -0.07524375 14.98974609 -0.07910156 C18.18500588 -0.08872874 21.3796002 -0.11973247 24.57470703 -0.15136719 C41.84680221 -0.24211138 58.71752718 0.11565158 72.23095703 12.41113281 C81.44049567 22.3290975 81.88675886 33.58946706 81.68798828 46.38769531 C81.2756026 56.95359345 77.22815695 64.40338474 69.95751953 71.96582031 C57.97902594 82.07379839 43.91279993 83.32915444 28.91845703 83.22363281 C22.70001953 83.19269531 22.70001953 83.19269531 16.35595703 83.16113281 C16.35595703 98.34113281 16.35595703 113.52113281 16.35595703 129.16113281 C7.77595703 129.16113281 -0.80404297 129.16113281 -9.64404297 129.16113281 C-9.64404297 86.92113281 -9.64404297 44.68113281 -9.64404297 1.16113281 C-6.12353094 0.45703041 -3.48045326 0.030522 0 0 Z " fill="#FAF8F5" transform="translate(552.64404296875,658.8388671875)"/>
<path d="M0 0 C1.38514931 1.04342698 2.74032764 2.12784193 4.0625 3.25 C4.77019531 3.848125 5.47789062 4.44625 6.20703125 5.0625 C15.40639801 13.52796551 19.66741229 25.0043154 20.34765625 37.37109375 C20.83633901 52.79406017 17.56990205 66.48657109 6.75 78.125 C-4.11683004 88.09233851 -17.03998007 91.62525591 -31.5 91.4609375 C-44.19014452 90.68222409 -55.57248835 85.6789718 -64.2265625 76.30078125 C-74.73272397 63.70777949 -76.06720239 49.58306824 -75.16064453 33.71972656 C-74.21761795 23.28246516 -69.04093628 13.20358007 -61.54296875 5.92578125 C-44.49020184 -8.24556575 -19.47281994 -12.22478919 0 0 Z " fill="#F9F7F5" transform="translate(780.9375,697.75)"/>
<path d="M0 0 C26.07 0 52.14 0 79 0 C79 6.93 79 13.86 79 21 C61.51 21 44.02 21 26 21 C26 31.56 26 42.12 26 53 C42.5 53 59 53 76 53 C76 59.93 76 66.86 76 74 C59.5 74 43 74 26 74 C26 84.89 26 95.78 26 107 C44.15 107 62.3 107 81 107 C81 114.26 81 121.52 81 129 C54.27 129 27.54 129 0 129 C0 86.43 0 43.86 0 0 Z " fill="#F9F7F4" transform="translate(231,659)"/>
<path d="M0 0 C7.92 0 15.84 0 24 0 C24.0093457 1.77044678 24.01869141 3.54089355 24.02832031 5.36499023 C24.06398232 11.24444871 24.11786532 17.12359216 24.18390274 23.00277615 C24.2232476 26.56396136 24.25549891 30.12490413 24.27099609 33.6862793 C24.28917491 37.78994565 24.33918211 41.89270852 24.390625 45.99609375 C24.39185364 47.26206894 24.39308228 48.52804413 24.39434814 49.8323822 C24.5316678 58.19306623 25.3499417 65.25388754 31.375 71.4375 C36.66391016 74.58566081 41.85271523 75.897918 48 75 C52.86332041 73.60290068 55.27195649 72.11875107 58.078125 67.80664062 C61.04677211 61.66907033 60.60527429 55.11315709 60.609375 48.4375 C60.62437801 47.03643909 60.64110958 45.63539574 60.65948486 44.234375 C60.70293366 40.57166675 60.72310693 36.90919698 60.73822021 33.24627686 C60.75787314 29.49867787 60.7998335 25.7513334 60.83984375 22.00390625 C60.91490213 14.66930744 60.9632748 7.33490927 61 0 C68.92 0 76.84 0 85 0 C85 31.02 85 62.04 85 94 C77.41 94 69.82 94 62 94 C61.505 89.545 61.505 89.545 61 85 C60.319375 86.0828125 60.319375 86.0828125 59.625 87.1875 C55.0099158 92.13223308 47.80137879 95.74294968 40.99609375 96.203125 C28.84559952 96.36317542 18.87639168 94.47991504 9.83203125 85.95703125 C5.38118826 81.24675843 2.79232241 77.22041307 1 71 C0.8154274 70.40016296 0.6308548 69.80032593 0.44068909 69.18231201 C-0.15621029 66.22643968 -0.11919366 63.41102778 -0.11352539 60.39550781 C-0.11367142 59.74143448 -0.11381744 59.08736115 -0.1139679 58.41346741 C-0.11327341 56.25998574 -0.10550283 54.10659148 -0.09765625 51.953125 C-0.09579042 50.45668586 -0.09436729 48.96024612 -0.09336853 47.46380615 C-0.08955635 43.53141585 -0.07973717 39.59906268 -0.06866455 35.66668701 C-0.05842249 31.65149437 -0.05386492 27.6362957 -0.04882812 23.62109375 C-0.03811372 15.74737693 -0.02052745 7.87369736 0 0 Z " fill="#F9F7F5" transform="translate(437,693)"/>
<path d="M0 0 C-0.14154136 2.56280208 -0.28808562 5.12515485 -0.4375 7.6875 C-0.47681641 8.40873047 -0.51613281 9.12996094 -0.55664062 9.87304688 C-0.78185678 13.66707282 -1.12839305 17.28651492 -2 21 C-2.99 20.94199219 -3.98 20.88398437 -5 20.82421875 C-14.80011921 20.32524089 -14.80011921 20.32524089 -23.484375 24.375 C-28.8375486 30.11448509 -30.08493491 37.08945247 -30.20532227 44.70825195 C-30.22526749 45.82903641 -30.24521271 46.94982086 -30.26576233 48.10456848 C-30.28247482 49.3036937 -30.29918732 50.50281891 -30.31640625 51.73828125 C-30.33718735 52.97418503 -30.35796844 54.21008881 -30.37937927 55.48344421 C-30.43359931 58.75652126 -30.48387578 62.0296274 -30.53222656 65.30279541 C-30.5826157 68.6478826 -30.63828816 71.99287724 -30.69335938 75.33789062 C-30.80035946 81.89185979 -30.90167736 88.44589514 -31 95 C-38.59 95 -46.18 95 -54 95 C-54 63.65 -54 32.3 -54 0 C-46.08 0 -38.16 0 -30 0 C-29.67 2.97 -29.34 5.94 -29 9 C-27.4840625 7.3603125 -27.4840625 7.3603125 -25.9375 5.6875 C-19.46219543 -0.67194425 -8.79322739 -4.39661369 0 0 Z " fill="#F8F6F4" transform="translate(700,693)"/>
<path d="M0 0 C5.54498346 4.38251314 7.8808065 10.15426643 9 17 C9.84600589 27.12857057 8.88103783 36.23792433 4.3125 45.375 C0.3258314 49.90040759 -5.04431045 53.56444574 -11.1640625 54.23828125 C-18.38132667 54.45594477 -24.16604493 53.23123724 -29.7890625 48.4921875 C-36.83955097 41.02492138 -37.49301315 32.51038747 -37.41967773 22.67138672 C-37.15326649 14.44947325 -35.34079317 8.25459129 -29.75 2.0625 C-20.89651164 -5.94150654 -10.08009332 -5.69010293 0 0 Z " fill="#051121" transform="translate(386,715)"/>
<path d="M0 0 C6.52034598 4.72725084 11.05611168 10.77392944 12.5 18.8125 C13.18084253 31.4080868 13.33618013 42.26814037 4.51171875 52.12109375 C-1.31778259 57.02240264 -6.71615262 57.40503144 -14.08203125 57.21875 C-19.89284905 56.5280928 -23.39216967 54.45135186 -27.01953125 49.91015625 C-33.74118538 39.81798967 -33.680759 28.3783698 -32.0703125 16.6953125 C-30.21217183 9.33156986 -25.82624459 4.34678159 -19.875 -0.1875 C-13.38299665 -2.11105655 -6.42135639 -2.17867449 0 0 Z " fill="#051020" transform="translate(763.5,712.1875)"/>
<path d="M0 0 C3.86562999 2.84292691 6.16023661 6.29691781 7.171875 10.93359375 C7.85565298 17.82835509 7.96388489 24.90146413 4.171875 30.93359375 C-0.10389169 36.02048149 -5.34535394 38.71355071 -11.828125 39.93359375 C-18.94218218 40.49605215 -25.70325142 39.64608111 -32.828125 38.93359375 C-32.828125 25.07359375 -32.828125 11.21359375 -32.828125 -3.06640625 C-22.52746445 -5.64157139 -9.34043627 -5.44858782 0 0 Z " fill="#061120" transform="translate(601.828125,682.06640625)"/>
<path d="M0 0 C3.2878418 1.47436523 3.2878418 1.47436523 6.69921875 3.55859375 C7.32379974 3.93429001 7.94838074 4.30998627 8.59188843 4.69706726 C10.63287706 5.92951923 12.65989095 7.18318079 14.6875 8.4375 C16.11104529 9.30267378 17.53545555 10.16642582 18.96069336 11.02880859 C21.88306082 12.80056738 24.79980968 14.58105244 27.71191406 16.36962891 C31.7332285 18.83924418 35.76654544 21.28849026 39.8046875 23.73046875 C44.50567305 26.57491418 49.20241191 29.42610478 53.89453125 32.28515625 C60.90926244 36.55767664 67.9475403 40.79011334 75 45 C72 46 72 46 69.1875 44.6015625 C68.135625 43.94929688 67.08375 43.29703125 66 42.625 C61.67302206 39.9431688 61.67302206 39.9431688 57 38 C57 37.34 57 36.68 57 36 C56.0925 35.731875 55.185 35.46375 54.25 35.1875 C51.25088947 34.09167115 49.46173542 32.95241085 47 31 C46.01 30.67 45.02 30.34 44 30 C44 29.34 44 28.68 44 28 C43.319375 27.9175 42.63875 27.835 41.9375 27.75 C38.1253093 26.77667472 35.35929671 25.04192545 32 23 C32 22.34 32 21.68 32 21 C31.34 20.7525 30.68 20.505 30 20.25 C26.23639093 18.68182955 22.6288576 16.85494954 19 15 C19 14.34 19 13.68 19 13 C16.525 12.505 16.525 12.505 14 12 C14 11.34 14 10.68 14 10 C10.7 9.01 7.4 8.02 4 7 C4 6.34 4 5.68 4 5 C0.60268371 2.90934382 -2.04269405 2.57901001 -6 3 C-8.09670255 4.56930358 -8.90826691 5.42449557 -9.32470703 8.03710938 C-9.30263184 8.79830078 -9.28055664 9.55949219 -9.2578125 10.34375 C-9.24363281 11.17777344 -9.22945313 12.01179688 -9.21484375 12.87109375 C-9.18519531 13.73863281 -9.15554688 14.60617187 -9.125 15.5 C-9.08158696 17.21864561 -9.04234884 18.93740309 -9.0078125 20.65625 C-8.98348145 21.41744141 -8.95915039 22.17863281 -8.93408203 22.96289062 C-9 25 -9 25 -10 28 C-10.10242077 29.86452639 -10.14634636 31.73247764 -10.15821838 33.59977722 C-10.1680072 34.76505447 -10.17779602 35.93033173 -10.18788147 37.13092041 C-10.19363693 38.4105365 -10.1993924 39.69015259 -10.20532227 41.00854492 C-10.21490167 42.36857907 -10.22491179 43.72861025 -10.23532104 45.08863831 C-10.26236947 48.78253871 -10.28337937 52.47645189 -10.30332303 56.17039657 C-10.32518296 60.03015076 -10.35257162 63.88986558 -10.37937927 67.74958801 C-10.42930606 75.05932222 -10.47424495 82.36907827 -10.51740164 89.67885524 C-10.56677412 98.00043694 -10.62169221 106.32197913 -10.67708123 114.64352262 C-10.79090107 131.7623119 -10.89774011 148.88113785 -11 166 C-11.33 166 -11.66 166 -12 166 C-12.11673559 144.94697396 -12.20494025 123.89400119 -12.25906086 102.84071732 C-12.28485653 93.06557658 -12.32003304 83.29063678 -12.37719727 73.515625 C-12.42699057 64.99697957 -12.4592811 56.47847963 -12.47044247 47.95969272 C-12.47696817 43.44783187 -12.49233341 38.93638731 -12.52865028 34.42465973 C-12.56254562 30.17943935 -12.57306619 25.93480741 -12.56553841 21.68946457 C-12.56691587 20.13015675 -12.57688729 18.5708296 -12.59602737 17.01163864 C-12.62086704 14.88408797 -12.61494178 12.75876557 -12.60127258 10.63116455 C-12.60588155 9.44020802 -12.61049051 8.24925148 -12.61523914 7.02220535 C-12 4 -12 4 -9.67453289 1.61507797 C-6.12655456 -0.52745005 -4.0925401 -0.53612248 0 0 Z " fill="#00CDD5" transform="translate(449,326)"/>
<path d="M0 0 C0 7.26 0 14.52 0 22 C-26.73 22 -53.46 22 -81 22 C-80.505 20.515 -80.505 20.515 -80 19 C-54.26 19.33 -28.52 19.66 -2 20 C-2 14.06 -2 8.12 -2 2 C-19.16 2 -36.32 2 -54 2 C-54 1.67 -54 1.34 -54 1 C-46.63102731 0.85731626 -39.26204891 0.7149301 -31.89306641 0.57275391 C-29.38460153 0.52432041 -26.87613798 0.47581801 -24.36767578 0.42724609 C-20.76855814 0.3575674 -17.16943583 0.28813403 -13.5703125 0.21875 C-12.44319855 0.19687622 -11.31608459 0.17500244 -10.15481567 0.15246582 C-9.11388763 0.13244507 -8.07295959 0.11242432 -7.00048828 0.09179688 C-6.08115509 0.07403198 -5.1618219 0.05626709 -4.21463013 0.03796387 C-2.80990281 0.0138836 -1.4049337 0 0 0 Z " fill="#CCCFD2" transform="translate(312,766)"/>
<path d="M0 0 C4.63730805 0.56209795 8.08210099 2.62247154 12 5 C13.20641832 5.69085493 14.41472173 6.37842967 15.625 7.0625 C18.43731302 8.67697599 21.22692186 10.31934658 24 12 C24 10.35 24 8.7 24 7 C24.33 7 24.66 7 25 7 C25 10.3 25 13.6 25 17 C21.10760958 15.64971943 18.43801293 13.91572673 15.3125 11.25 C11.03979302 7.72260732 6.65563455 4.85018135 1.8359375 2.12890625 C1.23007812 1.75636719 0.62421875 1.38382813 0 1 C0 0.67 0 0.34 0 0 Z " fill="#0E448D" transform="translate(478,596)"/>
<path d="M0 0 C7.92 0 15.84 0 24 0 C23.67 0.99 23.34 1.98 23 3 C16.07 2.67 9.14 2.34 2 2 C2 4.31 2 6.62 2 9 C1.67 9 1.34 9 1 9 C0.67 6.03 0.34 3.06 0 0 Z " fill="#DDDFE1" transform="translate(498,693)"/>
<path d="M0 0 C9.75253708 4.76736924 9.75253708 4.76736924 13 7 C13 7.66 13 8.32 13 9 C7.23955788 8.39363767 2.27985631 6.24341721 -3 4 C-3 3.34 -3 2.68 -3 2 C-2.01 2 -1.02 2 0 2 C0 1.34 0 0.68 0 0 Z " fill="#0B448A" transform="translate(464,586)"/>
<path d="M0 0 C5.38402738 1.49226586 9.64864744 4.02939327 14.3125 7 C15.40401367 7.67675781 15.40401367 7.67675781 16.51757812 8.3671875 C21.86946216 11.73892432 21.86946216 11.73892432 23 14 C18 12 18 12 13 10 C13 9.34 13 8.68 13 8 C11.35 7.67 9.7 7.34 8 7 C8 6.34 8 5.68 8 5 C6.865625 4.731875 5.73125 4.46375 4.5625 4.1875 C3.386875 3.795625 2.21125 3.40375 1 3 C0.67 2.01 0.34 1.02 0 0 Z " fill="#01DAD4" transform="translate(455,331)"/>
<path d="M0 0 C0.66 0.66 1.32 1.32 2 2 C0.86111328 2.07347656 0.86111328 2.07347656 -0.30078125 2.1484375 C-1.29464844 2.22320313 -2.28851563 2.29796875 -3.3125 2.375 C-4.79169922 2.47941406 -4.79169922 2.47941406 -6.30078125 2.5859375 C-9.21528433 2.83865472 -9.21528433 2.83865472 -12 5 C-13.32 4.34 -14.64 3.68 -16 3 C-10.32118275 0.56622118 -6.18569617 -0.53324967 0 0 Z " fill="#1A1E25" transform="translate(376,711)"/>
<path d="M0 0 C0.33 0.66 0.66 1.32 1 2 C0.34 1.67 -0.32 1.34 -1 1 C-0.67 0.67 -0.34 0.34 0 0 Z M-3 2 C-2.34 2.33 -1.68 2.66 -1 3 C-2.65 4.32 -4.3 5.64 -6 7 C-4.125 3.125 -4.125 3.125 -3 2 Z M-7 7 C-6.67 7.99 -6.34 8.98 -6 10 C-7.32 11.32 -8.64 12.64 -10 14 C-10 10.48283697 -9.17554415 9.62878252 -7 7 Z " fill="#E9EAEA" transform="translate(723,701)"/>
<path d="M0 0 C3.3 0.99 6.6 1.98 10 3 C10 3.66 10 4.32 10 5 C8.51793505 4.745504 7.03931385 4.47088238 5.5625 4.1875 C4.73878906 4.03667969 3.91507813 3.88585937 3.06640625 3.73046875 C2.38449219 3.48941406 1.70257812 3.24835937 1 3 C0.67 2.01 0.34 1.02 0 0 Z " fill="#EDEDED" transform="translate(768,693)"/>
<path d="M0 0 C2.5 1.375 2.5 1.375 5 3 C5 3.66 5 4.32 5 5 C1.7 4.34 -1.6 3.68 -5 3 C-3.68 2.34 -2.36 1.68 -1 1 C-0.67 0.67 -0.34 0.34 0 0 Z " fill="#05172E" transform="translate(395,219)"/>
<path d="M0 0 C-0.33 2.64 -0.66 5.28 -1 8 C-1.66 8 -2.32 8 -3 8 C-3 5.69 -3 3.38 -3 1 C-1 0 -1 0 0 0 Z " fill="#ECECEC" transform="translate(634,706)"/>
<path d="M0 0 C0.33 0.99 0.66 1.98 1 3 C-0.8125 6.1875 -0.8125 6.1875 -3 9 C-3.66 9 -4.32 9 -5 9 C-3.7508258 5.54074837 -2.32472205 2.85306797 0 0 Z " fill="#11151D" transform="translate(676,717)"/>
<path d="M0 0 C0.66 0 1.32 0 2 0 C1.34 2.31 0.68 4.62 0 7 C-0.66 7 -1.32 7 -2 7 C-2 5.35 -2 3.7 -2 2 C-1.34 2 -0.68 2 0 2 C0 1.34 0 0.68 0 0 Z " fill="#EDEDEE" transform="translate(797,755)"/>
<path d="M0 0 C1.09658936 3.28976808 0.79953138 4.71303767 0 8 C-0.99 8.33 -1.98 8.66 -3 9 C-2.01 6.03 -1.02 3.06 0 0 Z " fill="#ECEDEC" transform="translate(394,750)"/>
<path d="M0 0 C-5.625 4 -5.625 4 -9 4 C-8 1 -8 1 -5.625 -0.25 C-3 -1 -3 -1 0 0 Z " fill="#0190C8" transform="translate(491,485)"/>
</svg>
